<?xml version="1.0" encoding="utf-8"?>
<svg version="1.1" xmlns="http://www.w3.org/2000/svg" xmlns:xlink="http://www.w3.org/1999/xlink" x="0px" y="0px"
	 width="152px" height="152px" viewBox="0 0 152 152">
<path d="M100.1,13.8c-7-2.2-13.8-0.1-20.2,6.3c-3,3-5.1,6.3-6.3,9.9c-0.9,2.8-1.3,5.8-1.1,9c-2-0.4-4-0.3-6,0.1l-0.3,0
	l0.1,0.1c-3.6,0.8-7.1,2.9-10.6,6.3c-2.9,2.9-4.9,6-6,9.5c-1.1,3.5-1.3,7.3-0.6,11.4c-3-1-5.6-1.3-7.9-1.1c-4,0.4-7.8,2.5-11.4,6.1
	c-3.2,3.2-5.2,6.9-6,11.2c-0.5,2.5-0.5,5.8,0,9.8L17.4,86l-7.6,7.6l45.5,45.5l7.6-7.6l-24.1-24.1c-5.9-5.9-8.7-11.1-8.6-15.7
	c0.1-4.6,1.6-8.4,4.5-11.2c3.2-3.2,6.4-4.3,9.7-3.3c2.2,0.7,4.8,2.6,7.9,5.7L82,112.4l7.8-7.8L63.3,78.1c-4.7-4.7-7-9.1-6.8-13.3
	c0.2-4.2,1.7-7.8,4.7-10.8c2.2-2.2,4.6-3.5,7.2-3.8c2.6-0.4,5.5,0.9,8.5,4l31.6,31.6l2.1-2.1l4.7-4.7l1.1-1.1L86.2,47.5
	c-0.9-0.9-1.8-1.7-2.7-2.5c-0.7-1.7-1.1-3.4-1-5c0.2-3.9,1.6-7.1,4.5-9.9c2-2,4.2-3.2,6.5-3.5c2.2-0.3,4.7,0.8,7.3,3.5l31.7,31.7
	l9.7-9.7l-30.4-30.4C107.7,17.7,103.8,15,100.1,13.8z M138.7,52.2l-6.2,6.2l-30-30c-3.2-3.2-6.4-4.6-9.4-4.2
	c-2.9,0.4-5.5,1.9-7.9,4.2c-3.2,3.2-5,7.1-5.2,11.5c0,0.8,0,1.7,0.2,2.5c-1.8-1.2-3.5-2.1-5.1-2.7c-0.3-3.2-0.1-6.2,0.9-9
	c1.1-3.2,3-6.3,5.7-9c5.8-5.8,11.6-7.7,17.7-5.7c3.3,1.1,6.9,3.5,10.7,7.3L138.7,52.2z"/>
</svg>
